<?xml version="1.0" encoding="UTF-8" standalone="no"?>
<svg
   xmlns:dc="http://purl.org/dc/elements/1.1/"
   xmlns:cc="http://creativecommons.org/ns#"
   xmlns:rdf="http://www.w3.org/1999/02/22-rdf-syntax-ns#"
   xmlns:svg="http://www.w3.org/2000/svg"
   xmlns="http://www.w3.org/2000/svg"
   xmlns:sodipodi="http://sodipodi.sourceforge.net/DTD/sodipodi-0.dtd"
   xmlns:inkscape="http://www.inkscape.org/namespaces/inkscape"
   width="32"
   height="32"
   version="1.1"
   viewBox="0 0 32 32"
   id="svg118"
   sodipodi:docname="update.svg"
   inkscape:version="0.92.3 (unknown)">
  <metadata
     id="metadata124">
    <rdf:RDF>
      <cc:Work
         rdf:about="">
        <dc:format>image/svg+xml</dc:format>
        <dc:type
           rdf:resource="http://purl.org/dc/dcmitype/StillImage" />
      </cc:Work>
    </rdf:RDF>
  </metadata>
  <defs
     id="defs122" />
  <sodipodi:namedview
     pagecolor="#ffffff"
     bordercolor="#666666"
     borderopacity="1"
     objecttolerance="10"
     gridtolerance="10"
     guidetolerance="10"
     inkscape:pageopacity="0"
     inkscape:pageshadow="2"
     inkscape:window-width="1280"
     inkscape:window-height="982"
     id="namedview120"
     showgrid="false"
     inkscape:zoom="2.6074563"
     inkscape:cx="-29.523119"
     inkscape:cy="33.474586"
     inkscape:window-x="0"
     inkscape:window-y="0"
     inkscape:window-maximized="1"
     inkscape:current-layer="svg118" />
  <g
     id="22-22-update-none"
     transform="translate(78.529999,-1114.67)">
    <rect
       width="22"
       height="22"
       x="-46.53"
       y="1028.67"
       style="opacity:0.00100002"
       id="rect2" />
    <path
       d="m -35.529081,1031.6736 c -4.4183,0 -8,3.5817 -8,8 0,4.418 3.5817,8 8,8 4.418,0 8,-3.582 8,-8 0,-4.4183 -3.582,-8 -8,-8 z m 3.385,4.582 c 0.083,0 0.165,0.032 0.228,0.096 l 0.955,0.9551 c 0.128,0.1274 0.128,0.3317 0,0.459 l -4.185,4.1852 -1.012,1.012 -0.057,0.057 c -0.095,0.095 -0.25,0.095 -0.3452,0 l -0.0567,-0.057 -0.9551,-0.955 -2.8847,-2.885 c -0.0955,-0.095 -0.0955,-0.25 0,-0.345 l 1.0683,-1.0688 c 0.0955,-0.096 0.2502,-0.096 0.3457,0 l 2.6567,2.6558 4.011,-4.0133 c 0.064,-0.064 0.148,-0.096 0.231,-0.096 z"
       style="fill:#a1b4ba;fill-opacity:1"
       id="path4" />
  </g>
  <g
     id="22-22-update-low"
     transform="translate(32,10)">
    <rect
       width="22"
       height="22"
       x="0"
       y="0"
       style="opacity:0.00100002"
       id="rect7" />
    <path
       d="M 10.750976,3.0032982 C 8.704592,3.0671102 6.681597,3.9128045 5.168945,5.5228295 2.143642,8.7428791 2.302411,13.80612 5.522461,16.831423 8.742511,19.856726 13.80575,19.697958 16.831055,16.477907 19.856358,13.257859 19.697589,8.1946171 16.477539,5.1693139 14.867514,3.6566623 12.79736,2.9394865 10.750976,3.0032982 Z m 0.25,2.9960938 c 0.857702,0.00202 1.700462,0.2246535 2.447266,0.6464843 l -1.359375,1.5605468 c -0.346641,-0.135921 -0.715555,-0.206129 -1.087891,-0.207031 -1.656854,0 -3,1.343146 -3,2.9999999 h 1.5 l -1.25,1.5 -1.25,1.5 -1.25,-1.5 -1.25,-1.5 h 1.5 c 0,-2.7614229 2.238576,-5 5,-5 z m 4,2.0000001 1.25,1.5 1.25,1.4999999 h -1.5 c 0,2.761424 -2.238576,5 -5,5 -0.867045,-0.0027 -1.718474,-0.230918 -2.470703,-0.662109 l 1.355469,-1.554688 c 0.354543,0.142637 0.733074,0.216224 1.115234,0.216797 1.656854,0 3,-1.343146 3,-3 h -1.5 l 1.25,-1.4999999 z"
       style="fill:#a1b4ba;fill-rule:evenodd;fill-opacity:1"
       id="path9" />
    <circle
       style="fill:#3daee9;fill-opacity:1"
       cx="19"
       cy="19"
       r="2"
       id="circle11" />
  </g>
  <g
     id="update-low">
    <rect
       width="32"
       height="32"
       x="0"
       y="0"
       style="opacity:0.00100002"
       id="rect14" />
    <g
       transform="translate(-1,1.4317501e-4)"
       id="g36">
      <path
         style="fill:#3daee9;fill-rule:evenodd;fill-opacity:1"
         d="M 17.072266,5.0019531 C 16.630436,4.9991581 16.188236,5.0221412 15.75,5.0722656 13.997056,5.2727632 12.292011,5.8934735 10.792969,6.9179688 8.0725613,8.7771855 6.3576256,11.752307 6.0605469,15 h -0.4375 a 1.6244921,1.250232 0 0 0 -1.40625,1.875 l 0.9375,1.25 0.9394531,1.25 a 1.6244921,1.250232 0 0 0 2.8125,0 l 0.9394531,-1.25 0.9374999,-1.25 A 1.6244921,1.250232 0 0 0 9.3769531,15 h -0.3125 C 9.3481147,12.742792 10.581445,10.696392 12.486328,9.3945312 14.669114,7.9027428 17.44299,7.5864902 19.90625,8.546875 a 1.50015,1.50015 0 1 0 1.089844,-2.7949219 c -1.268744,-0.4946627 -2.598339,-0.7416149 -3.923828,-0.75 z"
         id="path26" />
      <path
         style="fill:#3daee9;fill-rule:evenodd;fill-opacity:1"
         d="m 15.927722,25.998047 c 0.44183,0.0028 0.88403,-0.02019 1.322266,-0.07031 1.752944,-0.200497 3.457989,-0.821208 4.957031,-1.845703 C 24.927427,22.222814 26.642362,19.247693 26.939441,16 h 0.4375 a 1.6244921,1.250232 0 0 0 1.40625,-1.875 l -0.9375,-1.25 -0.939453,-1.25 a 1.6244921,1.250232 0 0 0 -2.8125,0 l -0.939453,1.25 -0.9375,1.25 A 1.6244921,1.250232 0 0 0 23.623035,16 h 0.3125 c -0.283662,2.257208 -1.516992,4.303608 -3.421875,5.605469 -2.182786,1.491788 -4.956662,1.808041 -7.419922,0.847656 a 1.50015,1.50015 0 1 0 -1.089844,2.794922 c 1.268744,0.494663 2.598339,0.741615 3.923828,0.75 z"
         id="path34" />
    </g>
  </g>
  <g
     id="update-medium"
     transform="translate(0,-32)">
    <rect
       style="opacity:0.00100002"
       width="32"
       height="32"
       x="0"
       y="0"
       id="rect39" />
    <g
       transform="translate(-1,1.4317501e-4)"
       id="g61">
      <path
         d="M 17.072266,6.0019576 C 16.630436,5.9991626 16.188236,6.0221457 15.75,6.0722701 13.997056,6.2727677 12.292011,6.893478 10.792969,7.9179733 8.0725613,9.77719 6.3576256,12.752311 6.0605469,16.000004 h -0.4375 a 1.6244921,1.250232 0 0 0 -1.40625,1.875 l 0.9375,1.25 0.9394531,1.25 a 1.6244921,1.250232 0 0 0 2.8125,0 l 0.9394531,-1.25 0.9374999,-1.25 a 1.6244921,1.250232 0 0 0 -1.4062499,-1.875 h -0.3125 C 9.3481147,13.742796 10.581445,11.696396 12.486328,10.394536 14.669114,8.9027473 17.44299,8.5864947 19.90625,9.5468795 a 1.50015,1.50015 0 1 0 1.089844,-2.7949219 c -1.268744,-0.4946627 -2.598339,-0.7416149 -3.923828,-0.75 z"
         style="opacity:0.2;fill-rule:evenodd;fill:#a1b4ba;fill-opacity:1"
         id="path49" />
      <path
         d="m 15.927722,25.998047 c 0.44183,0.0028 0.88403,-0.02019 1.322266,-0.07031 1.752944,-0.200497 3.457989,-0.821208 4.957031,-1.845703 C 24.927427,22.222814 26.642362,19.247693 26.939441,16 h 0.4375 a 1.6244921,1.250232 0 0 0 1.40625,-1.875 l -0.9375,-1.25 -0.939453,-1.25 a 1.6244921,1.250232 0 0 0 -2.8125,0 l -0.939453,1.25 -0.9375,1.25 A 1.6244921,1.250232 0 0 0 23.623035,16 h 0.3125 c -0.283662,2.257208 -1.516992,4.303608 -3.421875,5.605469 -2.182786,1.491788 -4.956662,1.808041 -7.419922,0.847656 a 1.50015,1.50015 0 1 0 -1.089844,2.794922 c 1.268744,0.494663 2.598339,0.741615 3.923828,0.75 z"
         style="fill:#3daee9;fill-rule:evenodd;fill-opacity:1"
         id="path59" />
    </g>
  </g>
  <g
     id="update-high"
     transform="translate(0,-64)">
    <rect
       width="32"
       height="32"
       x="0"
       y="0"
       style="opacity:0.00100002"
       id="rect64" />
    <g
       transform="translate(-1,1.4317501e-4)"
       id="g86">
      <path
         style="fill:#3daee9;fill-rule:evenodd;fill-opacity:1"
         d="M 17.072266,5.0019531 C 16.630436,4.9991581 16.188236,5.0221412 15.75,5.0722656 13.997056,5.2727632 12.292011,5.8934735 10.792969,6.9179688 8.0725613,8.7771855 6.3576256,11.752307 6.0605469,15 h -0.4375 a 1.6244921,1.250232 0 0 0 -1.40625,1.875 l 0.9375,1.25 0.9394531,1.25 a 1.6244921,1.250232 0 0 0 2.8125,0 l 0.9394531,-1.25 0.9374999,-1.25 A 1.6244921,1.250232 0 0 0 9.3769531,15 h -0.3125 C 9.3481147,12.742792 10.581445,10.696392 12.486328,9.3945312 14.669114,7.9027428 17.44299,7.5864902 19.90625,8.546875 a 1.50015,1.50015 0 1 0 1.089844,-2.7949219 c -1.268744,-0.4946627 -2.598339,-0.7416149 -3.923828,-0.75 z"
         id="path76" />
      <path
         style="fill:#3daee9;fill-rule:evenodd;fill-opacity:1"
         d="m 15.927722,25.998047 c 0.44183,0.0028 0.88403,-0.02019 1.322266,-0.07031 1.752944,-0.200497 3.457989,-0.821208 4.957031,-1.845703 C 24.927427,22.222814 26.642362,19.247693 26.939441,16 h 0.4375 a 1.6244921,1.250232 0 0 0 1.40625,-1.875 l -0.9375,-1.25 -0.939453,-1.25 a 1.6244921,1.250232 0 0 0 -2.8125,0 l -0.939453,1.25 -0.9375,1.25 A 1.6244921,1.250232 0 0 0 23.623035,16 h 0.3125 c -0.283662,2.257208 -1.516992,4.303608 -3.421875,5.605469 -2.182786,1.491788 -4.956662,1.808041 -7.419922,0.847656 a 1.50015,1.50015 0 1 0 -1.089844,2.794922 c 1.268744,0.494663 2.598339,0.741615 3.923828,0.75 z"
         id="path84" />
    </g>
  </g>
  <g
     id="update-none"
     transform="translate(0,-96)">
    <rect
       width="32"
       height="32"
       x="0"
       y="0"
       style="opacity:0.001"
       id="rect89" />
    <g
       transform="translate(-56,69)"
       id="g101">
      <circle
         style="fill:#3daee9;fill-opacity:1"
         cx="72"
         cy="-53"
         r="14"
         id="circle93" />
      <path
         style="fill:none;stroke:#ffffff;stroke-width:4;stroke-linecap:round;stroke-linejoin:round"
         d="m 63.846399,-52.237147 5,6 11,-14"
         id="path99"
         inkscape:connector-curvature="0" />
    </g>
  </g>
  <g
     id="22-22-update-medium"
     transform="translate(32,-22)">
    <rect
       style="opacity:0.00100002"
       width="22"
       height="22"
       x="0"
       y="0"
       id="rect104" />
    <path
       style="fill:#a1b4ba;fill-rule:evenodd;fill-opacity:1"
       d="M 10.750976,3.0032982 C 8.704592,3.0671102 6.681597,3.9128045 5.168945,5.5228295 2.143642,8.7428791 2.302411,13.80612 5.522461,16.831423 8.742511,19.856726 13.80575,19.697958 16.831055,16.477907 19.856358,13.257859 19.697589,8.1946171 16.477539,5.1693139 14.867514,3.6566623 12.79736,2.9394865 10.750976,3.0032982 Z m 0.25,2.9960938 c 0.857702,0.00202 1.700462,0.2246535 2.447266,0.6464843 l -1.359375,1.5605468 c -0.346641,-0.135921 -0.715555,-0.206129 -1.087891,-0.207031 -1.656854,0 -3,1.343146 -3,2.9999999 h 1.5 l -1.25,1.5 -1.25,1.5 -1.25,-1.5 -1.25,-1.5 h 1.5 c 0,-2.7614229 2.238576,-5 5,-5 z m 4,2.0000001 1.25,1.5 1.25,1.4999999 h -1.5 c 0,2.761424 -2.238576,5 -5,5 -0.867045,-0.0027 -1.718474,-0.230918 -2.470703,-0.662109 l 1.355469,-1.554688 c 0.354543,0.142637 0.733074,0.216224 1.115234,0.216797 1.656854,0 3,-1.343146 3,-3 h -1.5 l 1.25,-1.4999999 z"
       id="path106" />
    <circle
       cx="19"
       cy="19"
       r="2"
       style="fill:#3daee9;fill-opacity:1"
       id="circle108" />
  </g>
  <g
     id="22-22-update-high"
     transform="translate(32,-54)">
    <rect
       width="22"
       height="22"
       x="0"
       y="0"
       style="opacity:0.00100002"
       id="rect111" />
    <path
       d="M 10.750976,3.0032982 C 8.704592,3.0671102 6.681597,3.9128045 5.168945,5.5228295 2.143642,8.7428791 2.302411,13.80612 5.522461,16.831423 8.742511,19.856726 13.80575,19.697958 16.831055,16.477907 19.856358,13.257859 19.697589,8.1946171 16.477539,5.1693139 14.867514,3.6566623 12.79736,2.9394865 10.750976,3.0032982 Z m 0.25,2.9960938 c 0.857702,0.00202 1.700462,0.2246535 2.447266,0.6464843 l -1.359375,1.5605468 c -0.346641,-0.135921 -0.715555,-0.206129 -1.087891,-0.207031 -1.656854,0 -3,1.343146 -3,2.9999999 h 1.5 l -1.25,1.5 -1.25,1.5 -1.25,-1.5 -1.25,-1.5 h 1.5 c 0,-2.7614229 2.238576,-5 5,-5 z m 4,2.0000001 1.25,1.5 1.25,1.4999999 h -1.5 c 0,2.761424 -2.238576,5 -5,5 -0.867045,-0.0027 -1.718474,-0.230918 -2.470703,-0.662109 l 1.355469,-1.554688 c 0.354543,0.142637 0.733074,0.216224 1.115234,0.216797 1.656854,0 3,-1.343146 3,-3 h -1.5 l 1.25,-1.4999999 z"
       style="fill:#a1b4ba;fill-rule:evenodd;fill-opacity:1"
       id="path113" />
    <circle
       style="fill:#3daee9;fill-opacity:1"
       cx="19"
       cy="19"
       r="2"
       id="circle115" />
  </g>
</svg>
